<mxfile host="app.diagrams.net" modified="2023-10-26T13:00:31.186Z" agent="Mozilla/5.0 (Windows NT 10.0; Win64; x64) AppleWebKit/537.36 (KHTML, like Gecko) Chrome/118.0.0.0 Safari/537.36 Edg/118.0.2088.61" version="22.0.8" etag="uwkuY45tA94SDN6W2qzX" type="github">
  <diagram name="Page-1" id="Bg8vb0amJboV6Yh507zJ">
    <mxGraphModel>
      <root>
        <mxCell id="0" />
        <mxCell id="1" parent="0" />
      </root>
    </mxGraphModel>
  </diagram>
</mxfile>
